<?xml version="1.0" encoding="utf-8"?>
<svg version="1.1" id="Layer_1" xmlns="http://www.w3.org/2000/svg" xmlns:xlink="http://www.w3.org/1999/xlink" x="0px" y="0px"
	 viewBox="0 0 500 500" style="enable-background:new 0 0 500 500;" xml:space="preserve">
<style type="text/css">
	.st0{fill:#1E1E1E;}
	.st1{fill:#FFFFFF;}
	.st2{fill:none;stroke:#FFFFFF;stroke-width:5;stroke-miterlimit:10;}
	.st3{fill:#FFFFFF;stroke:#1E1E1E;stroke-miterlimit:10;}
</style>
<path class="st0" d="M224.2,412.3c0,0-10,5.5-7.5,18.4h36.6c0,0,1.4-8.7-3.3-13.5l2.7-64.7c0,0,9.2,1.8,16,0l1.9,63.6
	c0,0-4,5-3.3,14.7h37.1c0,0,2.9-18.8-17.5-21.2l1.3-64.7c0,0,6.5-5.4,7.9-8.6l0.3,1.1c0,0-5,4.6-2.7,6.8c0,0,0.9,1.8,3.7,0.6
	l0.1,7.1c0,0,1.1,1.8,3.2,1.3c0,0,1.3,2.2,3.8,0.4c0,0,4.2,2.2,4.3-3.7c0,0,2.4-1,2.7-1.9v-11c0,0,1.8,1.3,1.1-5.1l-0.9-42.1
	c0,0-3.1-16.6-13.3-22.9c0,0-11.1-8.4-12.3-8.8c0,0,25.1-2.3,25.7-31c0,0,5.7-1,5.6-6.9c0,0,0.8-5.2-5.4-7.3l-0.4-33.4
	c0,0,16.5-16.5,18.4-28.6c0,0-0.6-1.1-2.2,0c0,0-10.2,5.4-13.9,4.7c0,0,2.7-7.1,2.3-8.6c0,0-0.5-2.2-5.2,2.3c0,0-9.1,5.7-12.1,5.4
	c0,0,7.8-7.1,5-8.2c0,0-0.8-0.4-4.6,1.3c0,0-13.9,6-33.1,1.1c0,0-11.7-5.2-22-5.6c0,0-1.1-2.3-2.8-2.6s-11.9,1-11.9,1l-10.7,3.8
	c0,0-10.5,8.8-14.3,12.1l-2.3-2.8c0,0-0.6-1.4-4.1,1.4c0,0-2.9,1.3-3.1,3.1c0,0-16.7,15.8-22.5,32.8c0,0-14.6,28,6.5,59.7
	c0,0,14.3,20,43.4,26.7v48c0,0-1.7,8.2,10.7,18.5l2.2,64.3C235.6,409.5,231.4,408.7,224.2,412.3z"/>
<path class="st1" d="M209.2,180.2l0.5,32.3c0,0-6.3,1.2-6.1,7.2s6.1,7.2,6.1,7.2s0.5,24.4,27,30.6v0.7c0,0-5.5,2.6-5.8,3.5
	c0,0-34.4-15.3-39.2-43.9C191.7,217.8,188,202.4,209.2,180.2z"/>
<path class="st2" d="M245.7,206.9c0,0-1.7-15.7-13.6-14.8c-9.5,0.7-9.3,9.6-8.8,13.3c0.6,1.6,0.8,3.3,0.8,5c0,0.4,0,0.7,0,1.1l0,0
	c0,0,0.7,13.3,12.6,12.8S245.7,206.9,245.7,206.9z"/>
<polygon class="st1" points="209.6,206.9 224.3,206.9 224.8,211.5 209.7,212.5 "/>
<polygon class="st1" points="312.4,206.9 297.7,206.9 297.2,211.5 312.3,212.5 "/>
<path class="st2" d="M297,213.6c0.4-2.3,1.4-4.4,1.9-6.7h-0.4c0,0,3.4-14-8.5-14.8c-11.9-0.9-13.6,14.8-13.6,14.8s-2.9,16.8,9,17.4
	c7.5,0.3,10.5-4.8,11.8-8.6C296.9,215,296.9,214.3,297,213.6z"/>
<path class="st3" d="M281.1,239.3c0,0-26.8-0.3-29.9,2.3s-8.7-6.1,6.4-7.9C272.7,231.9,278.8,237,281.1,239.3z"/>
<line class="st2" x1="246" y1="206.1" x2="276.7" y2="205.1"/>
<path class="st0" d="M139.7,112.7c0,0,12.8-23.9,30.6-14.8c0,0,6.3,4.3,7,14.2c0,0-1.8,13.3,0,14.8l2.8,5.4c0,0-9.3,7.4-11.1,7.5
	s-5.2-5.6-5.5-7.3s-1.3-6.9-0.6-11.2c0,0,1.1-9.4-3-9.6c0,0-5.8-1.1-9.5,7.9c0,0,0.1,1.7-2.9-0.1
	C144.4,117.6,139.7,112.7,139.7,112.7z"/>
<path class="st0" d="M176.1,137.6c0,0,7.5-3.1,11.5,2.2c0,0,5,6.6,0,12.4c0,0-6.5,6.6-13.8-0.8C173.8,151.3,168.4,142,176.1,137.6z"
	/>
<path class="st0" d="M227.8,79.4c0,0,24.5-11.5,33.4,6.5c0,0,2.4,7.2-2.9,15.6c0,0-9.4,9.6-8.9,11.9l-1,6c0,0-11.9,0.3-13.4-0.6
	c-1.5-1-0.8-7.6,0-9.1s3.1-6.3,6.2-9.4c0,0,6.6-6.9,3.3-9.5c0,0-4-4.4-12.4,0.6c0,0-0.9,1.4-2.3-1.9
	C228.6,86.2,227.8,79.4,227.8,79.4z"/>
<path class="st0" d="M242,121.1c0,0,7.9,2.1,7.9,8.6c0,0,0,8.3-7.4,9.9c0,0-9.2,1.4-10.6-8.9C231.9,130.8,233.2,120.1,242,121.1z"/>
<path class="st0" d="M328.6,206.1c0,0,26.3-6.2,31.4,13.2c0,0,0.9,7.6-6,14.6c0,0-11.1,7.4-11.1,9.8l-2.2,5.7c0,0-11.7-2.1-13-3.3
	s0.7-7.6,1.8-8.9c1.1-1.3,4.3-5.5,8-7.9c0,0,7.8-5.4,5.2-8.6c0,0-3-5.1-12.2-1.9c0,0-1.2,1.2-1.8-2.3
	C328,212.9,328.6,206.1,328.6,206.1z"/>
<path class="st0" d="M334,249.8c0,0,7.3,3.6,6,10c0,0-1.7,8.1-9.3,8.2c0,0-9.3-0.5-8.6-10.8C322.2,257.2,325.6,247,334,249.8z"/>
</svg>
